<svg version="1.1" xmlns="http://www.w3.org/2000/svg" xmlns:xlink="http://www.w3.org/1999/xlink" width="32px" height="32px" viewBox="0 0 32 32">
<g id="google_plus">
    <circle fill="#DB4935" cx="16" cy="16" r="16"/>
    <path fill="#FFF" d="M16.9,8.4c0.2,0.1,0.3,0.3,0.6,0.5c0.3,0.2,0.4,0.4,0.6,0.7c0.2,0.3,0.4,0.6,0.5,1 c0.1,0.4,0.2,0.8,0.2,1.3s-0.1,0.9-0.2,1.3c-0.1,0.4-0.3,0.7-0.5,1c-0.2,0.3-0.4,0.6-0.7,0.8s-0.5,0.5-0.8,0.7 c-0.2,0.2-0.3,0.4-0.5,0.6c-0.2,0.2-0.2,0.4-0.2,0.7s0.1,0.5,0.2,0.7c0.2,0.2,0.3,0.3,0.4,0.4l1,0.7c0.3,0.2,0.6,0.5,0.8,0.7 c0.3,0.2,0.5,0.5,0.7,0.8c0.2,0.3,0.4,0.6,0.5,1c0.1,0.4,0.2,0.8,0.2,1.2c0,0.6-0.2,1.2-0.4,1.8c-0.2,0.6-0.7,1.1-1.3,1.6 c-0.6,0.5-1.3,0.8-2.2,1.1c-0.9,0.3-1.9,0.4-3,0.4c-1,0-1.8-0.1-2.5-0.3c-0.7-0.2-1.3-0.5-1.8-0.8c-0.5-0.4-0.8-0.8-1.1-1.2 c-0.2-0.4-0.3-0.9-0.3-1.4s0.1-1,0.4-1.6c0.3-0.6,0.8-1.1,1.6-1.6c0.4-0.2,0.8-0.4,1.3-0.6c0.5-0.1,0.9-0.3,1.4-0.4 s0.9-0.1,1.3-0.2c0.4,0,0.8-0.1,1.1-0.1c-0.2-0.2-0.4-0.5-0.5-0.8c-0.2-0.3-0.3-0.6-0.3-1c0-0.2,0-0.4,0.1-0.6 c0.1-0.1,0.1-0.3,0.2-0.5c-0.1,0-0.3,0-0.4,0c-0.1,0-0.3,0-0.4,0c-0.7,0-1.3-0.1-1.9-0.4c-0.5-0.2-1-0.5-1.4-0.9 c-0.4-0.4-0.7-0.8-0.8-1.3c-0.2-0.5-0.3-1-0.3-1.5c0-0.6,0.1-1.2,0.4-1.9c0.3-0.6,0.7-1.2,1.3-1.7c0.8-0.6,1.6-1,2.4-1.2 c0.8-0.2,1.6-0.3,2.3-0.3h5.4L18.6,8h-1.7V8.4z M17.9,23.6c0-0.3-0.1-0.6-0.2-0.9c-0.1-0.3-0.3-0.5-0.5-0.8 c-0.2-0.3-0.5-0.5-0.9-0.8c-0.4-0.3-0.8-0.6-1.3-1c-0.1,0-0.2,0-0.3,0s-0.2,0-0.3,0c-0.1,0-0.2,0-0.4,0s-0.4,0-0.7,0.1 c-0.3,0.1-0.5,0.1-0.8,0.1c-0.3,0.1-0.6,0.1-0.9,0.2c-0.1,0.1-0.3,0.1-0.6,0.3c-0.3,0.1-0.5,0.3-0.8,0.5c-0.2,0.2-0.5,0.5-0.6,0.8 c-0.2,0.3-0.3,0.7-0.3,1.2c0,1,0.4,1.7,1.3,2.3c0.8,0.6,2,0.9,3.4,0.9c1.3,0,2.2-0.3,2.9-0.8S17.9,24.4,17.9,23.6z M14,15.8 c0.3,0,0.7-0.1,1-0.2c0.3-0.1,0.6-0.3,0.8-0.5c0.3-0.3,0.5-0.6,0.6-1c0.1-0.4,0.1-0.7,0.1-0.9c0-0.5-0.1-1-0.2-1.6 c-0.1-0.6-0.4-1.1-0.6-1.6c-0.3-0.5-0.6-0.9-1-1.2c-0.4-0.3-0.9-0.5-1.4-0.5c-0.4,0-0.7,0.1-1,0.2c-0.3,0.2-0.6,0.4-0.8,0.6 C11.3,9.4,11.1,9.7,11,10c-0.1,0.3-0.1,0.7-0.1,1c0,0.4,0.1,0.9,0.2,1.5c0.1,0.6,0.3,1.1,0.6,1.5c0.3,0.5,0.6,0.9,1,1.2 C12.9,15.7,13.4,15.8,14,15.8z"/>
    <line stroke="#FFF" x1="19.8" y1="11.5" x2="28.3" y2="11.5"/>
    <line stroke="#FFF" x1="24" y1="7.2" x2="24" y2="15.8"/>
</g>
</svg>